<svg xmlns="http://www.w3.org/2000/svg" xmlns:xlink="http://www.w3.org/1999/xlink" height="186" width="266"><defs><pattern xlink:href="#b" id="a" patternTransform="translate(-7.306 -1.926) scale(10.42396)"/><pattern id="b" patternTransform="scale(10)" height="1" width="2" patternUnits="userSpaceOnUse"><path fill="#b2e5e8" d="M0 -0.5H1V1.5H0z"/></pattern><pattern id="c" patternTransform="scale(10)" height="1" width="65" patternUnits="userSpaceOnUse"><path fill="#4c4c4c" d="M0 -0.5H1V1.5H0z"/></pattern></defs><path fill="none" stroke="#4c4c4c" stroke-width="1.711" d="M2.911 879.599H264.345V1041.174H2.911z" transform="translate(0 -866.362)"/><path d="m 391.42858,448.07648 a 65.714287,65.714287 0 1 1 -131.42857,0 65.714287,65.714287 0 1 1 131.42857,0 z" transform="matrix(.89162 0 0 .89162 -117.612 -292.366)" fill="url(#c)" stroke="#4c4c4c" stroke-width="2"/><text style="line-height:125%" x="11.551" y="899.99" font-size="34.214" font-weight="400" letter-spacing="0" word-spacing="0" fill="#e36a5c" font-family="Sans" transform="translate(0 -866.362)"><tspan x="11.551" y="899.99" style="-inkscape-font-specification:Serif Bold" font-size="15.396" font-weight="700" font-family="Serif">U</tspan></text><text y="907.844" x="89.271" style="line-height:125%" font-size="34.214" font-weight="400" letter-spacing="0" word-spacing="0" fill="#e36a5c" font-family="Sans" transform="translate(0 -866.362)"><tspan style="-inkscape-font-specification:Serif Bold" y="907.844" x="89.271" font-size="15.396" font-weight="700" font-family="Serif">A</tspan></text><text style="line-height:125%" x="166.767" y="907.844" font-size="34.214" font-weight="400" letter-spacing="0" word-spacing="0" fill="#e36a5c" font-family="Sans" transform="translate(0 -866.362)"><tspan x="166.767" y="907.844" style="-inkscape-font-specification:Serif Bold" font-size="15.396" font-weight="700" font-family="Serif">B</tspan></text><path transform="matrix(.89162 0 0 .89162 -193.612 -292.366)" d="m 391.42858,448.07648 a 65.714287,65.714287 0 1 1 -131.42857,0 65.714287,65.714287 0 1 1 131.42857,0 z" fill="url(#c)" stroke="#4c4c4c" stroke-width="2"/><path d="m 92.931938,164.79655 c -0.340296,-0.0387 -1.493764,-0.15841 -2.563263,-0.26603 -10.443221,-1.05088 -21.24503,-5.55797 -29.875261,-12.46556 -2.398289,-1.91957 -6.626962,-6.12758 -8.428633,-8.38743 -7.150261,-8.96865 -11.189443,-18.49044 -12.631972,-29.77806 -0.423098,-3.31069 -0.425456,-10.14673 -0.0047,-13.50821 1.798794,-14.369461 8.354185,-26.857907 19.183523,-36.545867 8.325127,-7.447683 18.745942,-12.217002 30.519567,-13.967961 2.700729,-0.401649 12.161741,-0.46003 14.672461,-0.09054 9.29167,1.367403 16.40453,3.888129 23.48421,8.322561 2.30636,1.444612 6.12589,4.220441 6.12589,4.451965 0,0.07546 -0.61884,0.69871 -1.3752,1.384993 -1.74409,1.582495 -4.66822,4.817556 -6.36606,7.042993 -6.35992,8.336191 -10.1141,17.313465 -11.73469,28.060825 -0.3485,2.311181 -0.39988,3.343941 -0.40012,8.043341 -3.5e-4,5.77083 0.14854,7.43102 1.07764,12.02081 1.58893,7.8493 5.09243,15.89931 9.75268,22.40877 2.18891,3.05749 3.4076,4.49058 6.34945,7.4665 l 2.70867,2.74003 -0.6691,0.58976 c -2.22463,1.96084 -7.04887,4.98592 -10.92214,6.84882 -5.76398,2.77225 -11.25598,4.40096 -17.85445,5.29492 -1.99861,0.27077 -9.585814,0.4997 -11.048542,0.33337 l 0,0 z" fill="#b2e5e8"/><path d="m 132.01999,148.02977 c -6.94574,-6.91176 -12.01032,-15.46055 -14.70432,-24.82026 -5.07139,-17.61939 -1.62999,-36.160902 9.45955,-50.965918 1.79988,-2.40292 7.52822,-8.524311 7.97697,-8.524311 0.40579,0 4.09567,3.693724 6.24348,6.25 6.89753,8.209267 11.39509,18.216293 12.97062,28.859495 0.59824,4.041354 0.71367,11.275954 0.23956,15.015504 -1.40594,11.08946 -5.77735,21.43632 -12.56899,29.75 -1.72752,2.11468 -6.46981,6.875 -6.84895,6.875 -0.17403,0 -1.41959,-1.09778 -2.76792,-2.43951 l 0,0 z" fill="#b2e5e8"/><path d="m 167.31848,164.6901 c -8.14423,-0.76593 -17.4044,-3.83424 -24.375,-8.07653 -2.37565,-1.44582 -6.75,-4.5754 -6.75,-4.82922 0,-0.0741 1.13224,-1.26295 2.51609,-2.64197 7.6043,-7.57777 13.02928,-17.06625 15.60049,-27.28583 1.3549,-5.38519 1.73459,-8.57107 1.74447,-14.63727 0.009,-5.62177 -0.19828,-7.706696 -1.26802,-12.745336 -1.7958,-8.458513 -6.04482,-17.388938 -11.59962,-24.379663 -0.87405,-1.1 -2.8236,-3.26591 -4.33233,-4.813135 -1.50873,-1.547224 -2.69656,-2.844894 -2.63961,-2.883711 0.0569,-0.03882 0.60978,-0.472408 1.22853,-0.963535 6.20957,-4.928788 15.54263,-9.220066 23.5246,-10.816458 4.96399,-0.992796 7.79851,-1.221027 13.44716,-1.082744 9.07512,0.222167 15.82328,1.863355 23.91033,5.815116 16.96324,8.289138 28.84935,24.622392 31.64072,43.478962 0.59824,4.041354 0.71367,11.275954 0.23956,15.015504 -1.22183,9.63731 -4.57985,18.49511 -9.95143,26.25 -11.7958,17.02943 -32.26451,26.53988 -52.93594,24.59582 z" fill="#b2e5e8"/></svg>